# xmcd
#
# Track frame offsets:
#	150
#	27442
#	47690
#	65925
#	83932
#	101130
#	121900
#	138790
#	152145
#	170302
#	188960
#	205802
#	228675
#	243240
#	260742
#	278042
#
# Disc length: 3957 seconds
#
# Revision: 1
# Processed by: cddbd v1.5PL3 Copyright (c) Steve Scherf et al.
# Submitted via: CDex 1.50Beta5
#
DISCID=e80f7310
DTITLE=前川清 - 前川清 全曲集 ひまわり
DYEAR=2002
DGENRE=World
TTITLE0=ひまわり
TTITLE1=抱きしめて
TTITLE2=東京砂漠
TTITLE3=愛が欲しい
TTITLE4=恋歌
TTITLE5=さようならの彼方へ
TTITLE6=神戸
TTITLE7=そして神戸
TTITLE8=男と女の破片
TTITLE9=大阪
TTITLE10=この愛に生きて
TTITLE11=花の時 ・愛の
TTITLE12=中の島ブルース
TTITLE13=噂の女
TTITLE14=逢わずに愛して
TTITLE15=長崎は今日も雨だった
EXTD=
EXTT0=
EXTT1=
EXTT2=
EXTT3=
EXTT4=
EXTT5=
EXTT6=
EXTT7=
EXTT8=
EXTT9=
EXTT10=
EXTT11=
EXTT12=
EXTT13=
EXTT14=
EXTT15=
PLAYORDER=
